<?xml version="1.0" ?><svg id="Lag_1" style="enable-background:new 0 0 204 204;" version="1.1" viewBox="0 0 204 204" xml:space="preserve" xmlns="http://www.w3.org/2000/svg" xmlns:xlink="http://www.w3.org/1999/xlink"><style type="text/css">
	.st0{fill:url(#SVGID_1_);}
	.st1{fill:#FFFFFF;}
	.st2{fill:#E6E8E9;}
	.st3{fill:#829EC6;}
	.st4{fill:#21579A;}
</style><g><linearGradient gradientUnits="userSpaceOnUse" id="SVGID_1_" x1="102.0005" x2="102.0005" y1="204.0009" y2="-2.671186e-09"><stop offset="0" style="stop-color:#263B74"/><stop offset="1" style="stop-color:#4D78BF"/></linearGradient><path class="st0" d="M161.5,204h-119C19.1,204,0,184.9,0,161.5v-119C0,19.1,19.1,0,42.5,0h119C184.9,0,204,19.1,204,42.5v119   C204,184.9,184.9,204,161.5,204z"/><g><circle class="st1" cx="102" cy="102" r="80.9"/><circle class="st2" cx="102" cy="102" r="71.6"/><g><path class="st3" d="M54.8,155.8c12.6,11.1,29.2,17.9,47.3,17.9c12.7,0,24.5-3.3,34.9-9.1l-45.5-45.5L54.8,155.8z"/><path class="st3" d="M138.9,129.2l-5.7-5.7l5.7-5.7l24-24l-31.1-31.1l15.9-15.9c-6.4-5.3-13.7-9.5-21.6-12.3l5,5L89.8,80.9     L56,47.2c-4.4,3.7-8.3,7.9-11.7,12.5L77.6,93l-40.1,40.1c2.4,5,5.4,9.7,8.9,14L83,110.6l8.5-8.5l8.5,8.5l47.1,47.1     c3.7-3,7.2-6.4,10.3-10.1L138.9,129.2z"/><path class="st3" d="M173.3,104.2l-4.7-4.7l-24,24l17.5,17.5c7-10.7,11.2-23.5,11.5-37.2L173.3,104.2z"/></g></g><g><path class="st4" d="M147,93.9c0-24.9-20.2-45-45-45s-45,20.2-45,45c0,12.3,4.9,23.4,12.8,31.5l0,0c0,0,0.1,0.1,0.2,0.2    c0.1,0.1,0.2,0.2,0.4,0.4c3.7,3.7,25.3,25.3,27.3,27.3c2.1,2.1,3.1,4.1,5.6,1.5s25.8-24.3,28.8-27.3c0,0,0,0,0,0    C141.3,119.2,147,107.2,147,93.9z"/><circle class="st1" cx="102" cy="93.9" r="21.9"/></g></g></svg>